<svg width="1440" height="734" xmlns="http://www.w3.org/2000/svg"><g><path d="M-86,-93L-90,92L107,-48Z" fill="#904c0d" stroke="#904c0d"/><path d="M-86,-93L107,-48L226,-60Z" fill="#8f4a15" stroke="#8f4a15"/><path d="M-86,-93L226,-60L394,-61Z" fill="#9c5b27" stroke="#9c5b27"/><path d="M-86,-93L394,-61L750,-90Z" fill="#a96f49" stroke="#a96f49"/><path d="M-86,-93L750,-90L1102,-106Z" fill="#a27769" stroke="#a27769"/><path d="M-86,-93L1102,-106L1653,-123Z" fill="#6a625f" stroke="#6a625f"/><path d="M107,-48L-90,92L118,55Z" fill="#ad722b" stroke="#ad722b"/><path d="M107,-48L118,55L226,-60Z" fill="#ab6f2d" stroke="#ab6f2d"/><path d="M226,-60L118,55L265,89Z" fill="#c49047" stroke="#c49047"/><path d="M226,-60L265,89L394,-61Z" fill="#bf8b4c" stroke="#bf8b4c"/><path d="M394,-61L265,89L400,116Z" fill="#d8ad6b" stroke="#d8ad6b"/><path d="M394,-61L400,116L581,53Z" fill="#dab37c" stroke="#dab37c"/><path d="M394,-61L581,53L629,-47Z" fill="#c39b71" stroke="#c39b71"/><path d="M394,-61L629,-47L750,-90Z" fill="#ac856a" stroke="#ac856a"/><path d="M629,-47L581,53L734,93Z" fill="#cab58b" stroke="#cab58b"/><path d="M629,-47L734,93L750,-90Z" fill="#b39e7e" stroke="#b39e7e"/><path d="M750,-90L734,93L899,109Z" fill="#b4af88" stroke="#b4af88"/><path d="M750,-90L899,109L972,-47Z" fill="#918f6f" stroke="#918f6f"/><path d="M750,-90L972,-47L1102,-106Z" fill="#686658" stroke="#686658"/><path d="M972,-47L899,109L1124,116Z" fill="#8fa176" stroke="#8fa176"/><path d="M972,-47L1124,116L1102,-106Z" fill="#697352" stroke="#697352"/><path d="M1102,-106L1124,116L1248,84Z" fill="#687953" stroke="#687953"/><path d="M1102,-106L1248,84L1289,-93Z" fill="#464f31" stroke="#464f31"/><path d="M1102,-106L1289,-93L1653,-123Z" fill="#2d1b17" stroke="#2d1b17"/><path d="M1289,-93L1248,84L1438,-45Z" fill="#4d4626" stroke="#4d4626"/><path d="M1289,-93L1438,-45L1653,-123Z" fill="#341005" stroke="#341005"/><path d="M1438,-45L1248,84L1455,53Z" fill="#5f542e" stroke="#5f542e"/><path d="M1438,-45L1455,53L1653,-123Z" fill="#461e04" stroke="#461e04"/><path d="M1653,-123L1455,53L1654,109Z" fill="#583616" stroke="#583616"/><path d="M-90,92L-93,395L-75,235Z" fill="#b89673" stroke="#b89673"/><path d="M-90,92L-75,235L93,228Z" fill="#c2995a" stroke="#c2995a"/><path d="M-90,92L93,228L118,55Z" fill="#cc9c4a" stroke="#cc9c4a"/><path d="M118,55L93,228L265,89Z" fill="#dfb460" stroke="#dfb460"/><path d="M265,89L93,228L292,227Z" fill="#e8c985" stroke="#e8c985"/><path d="M265,89L292,227L400,116Z" fill="#f1d088" stroke="#f1d088"/><path d="M400,116L292,227L452,284Z" fill="#f5e3b2" stroke="#f5e3b2"/><path d="M400,116L452,284L593,216Z" fill="#fbedc4" stroke="#fbedc4"/><path d="M400,116L593,216L581,53Z" fill="#f6e0a4" stroke="#f6e0a4"/><path d="M581,53L593,216L734,93Z" fill="#ebdea8" stroke="#ebdea8"/><path d="M734,93L593,216L797,232Z" fill="#e4eac9" stroke="#e4eac9"/><path d="M734,93L797,232L899,109Z" fill="#cfdaaf" stroke="#cfdaaf"/><path d="M899,109L797,232L898,277Z" fill="#c2dec4" stroke="#c2dec4"/><path d="M899,109L898,277L1124,116Z" fill="#aacaa5" stroke="#aacaa5"/><path d="M1124,116L898,277L1137,288Z" fill="#9cc8b4" stroke="#9cc8b4"/><path d="M1124,116L1137,288L1271,281Z" fill="#84b3a0" stroke="#84b3a0"/><path d="M1124,116L1271,281L1248,84Z" fill="#80a27a" stroke="#80a27a"/><path d="M1248,84L1271,281L1431,223Z" fill="#80977a" stroke="#80977a"/><path d="M1248,84L1431,223L1455,53Z" fill="#7f804d" stroke="#7f804d"/><path d="M1455,53L1431,223L1654,109Z" fill="#806c3f" stroke="#806c3f"/><path d="M1654,109L1431,223L1601,270Z" fill="#807860" stroke="#807860"/><path d="M1654,109L1601,270L1622,394Z" fill="#7f8076" stroke="#7f8076"/><path d="M1654,109L1622,394L1651,800Z" fill="#537572" stroke="#537572"/><path d="M-75,235L-93,395L93,228Z" fill="#bfa379" stroke="#bfa379"/><path d="M93,228L-93,395L123,408Z" fill="#c5b18b" stroke="#c5b18b"/><path d="M93,228L123,408L292,227Z" fill="#decb9e" stroke="#decb9e"/><path d="M292,227L123,408L277,434Z" fill="#e2d7af" stroke="#e2d7af"/><path d="M292,227L277,434L419,404Z" fill="#e9e3c3" stroke="#e9e3c3"/><path d="M292,227L419,404L452,284Z" fill="#f0eaca" stroke="#f0eaca"/><path d="M452,284L419,404L615,433Z" fill="#edf3e1" stroke="#edf3e1"/><path d="M452,284L615,433L593,216Z" fill="#eff4e1" stroke="#eff4e1"/><path d="M593,216L615,433L747,405Z" fill="#e2f4ec" stroke="#e2f4ec"/><path d="M593,216L747,405L797,232Z" fill="#e1f5ea" stroke="#e1f5ea"/><path d="M797,232L747,405L898,277Z" fill="#c9eae2" stroke="#c9eae2"/><path d="M898,277L747,405L955,398Z" fill="#b9e4e0" stroke="#b9e4e0"/><path d="M898,277L955,398L1137,288Z" fill="#a0d4cc" stroke="#a0d4cc"/><path d="M1137,288L955,398L1129,426Z" fill="#8dc7c3" stroke="#8dc7c3"/><path d="M1137,288L1129,426L1294,404Z" fill="#77b4b0" stroke="#77b4b0"/><path d="M1137,288L1294,404L1271,281Z" fill="#7aada5" stroke="#7aada5"/><path d="M1271,281L1294,404L1431,223Z" fill="#7b9d93" stroke="#7b9d93"/><path d="M1431,223L1294,404L1484,424Z" fill="#78928c" stroke="#78928c"/><path d="M1431,223L1484,424L1601,270Z" fill="#7b817a" stroke="#7b817a"/><path d="M1601,270L1484,424L1622,394Z" fill="#77807f" stroke="#77807f"/><path d="M-93,395L-85,914L-62,580Z" fill="#464e31" stroke="#464e31"/><path d="M-93,395L-62,580L123,408Z" fill="#899770" stroke="#899770"/><path d="M123,408L-62,580L80,605Z" fill="#778e65" stroke="#778e65"/><path d="M123,408L80,605L284,561Z" fill="#8ba87d" stroke="#8ba87d"/><path d="M123,408L284,561L277,434Z" fill="#abc69b" stroke="#abc69b"/><path d="M277,434L284,561L427,563Z" fill="#9ec49f" stroke="#9ec49f"/><path d="M277,434L427,563L419,404Z" fill="#b6d8b8" stroke="#b6d8b8"/><path d="M419,404L427,563L615,433Z" fill="#bce3cd" stroke="#bce3cd"/><path d="M615,433L427,563L620,587Z" fill="#9ed2bf" stroke="#9ed2bf"/><path d="M615,433L620,587L747,405Z" fill="#a7e3d8" stroke="#a7e3d8"/><path d="M747,405L620,587L765,600Z" fill="#8ed1c9" stroke="#8ed1c9"/><path d="M747,405L765,600L955,398Z" fill="#8ed9d2" stroke="#8ed9d2"/><path d="M955,398L765,600L963,618Z" fill="#63bab2" stroke="#63bab2"/><path d="M955,398L963,618L1135,556Z" fill="#4eafa6" stroke="#4eafa6"/><path d="M955,398L1135,556L1129,426Z" fill="#5db8b0" stroke="#5db8b0"/><path d="M1129,426L1135,556L1268,583Z" fill="#31968d" stroke="#31968d"/><path d="M1129,426L1268,583L1294,404Z" fill="#3f9d94" stroke="#3f9d94"/><path d="M1294,404L1268,583L1464,593Z" fill="#2b7971" stroke="#2b7971"/><path d="M1294,404L1464,593L1484,424Z" fill="#3e7e76" stroke="#3e7e76"/><path d="M1484,424L1464,593L1584,633Z" fill="#245550" stroke="#245550"/><path d="M1484,424L1584,633L1622,394Z" fill="#396d68" stroke="#396d68"/><path d="M1622,394L1584,633L1651,800Z" fill="#133e39" stroke="#133e39"/><path d="M-62,580L-85,914L-56,738Z" fill="#3c2406" stroke="#3c2406"/><path d="M-62,580L-56,738L80,605Z" fill="#4d5730" stroke="#4d5730"/><path d="M80,605L-56,738L97,780Z" fill="#4d4820" stroke="#4d4820"/><path d="M80,605L97,780L220,743Z" fill="#5b5b31" stroke="#5b5b31"/><path d="M80,605L220,743L284,561Z" fill="#6f8359" stroke="#6f8359"/><path d="M284,561L220,743L437,773Z" fill="#717f5b" stroke="#717f5b"/><path d="M284,561L437,773L427,563Z" fill="#819e7f" stroke="#819e7f"/><path d="M427,563L437,773L593,757Z" fill="#7b907a" stroke="#7b907a"/><path d="M427,563L593,757L620,587Z" fill="#7fa895" stroke="#7fa895"/><path d="M620,587L593,757L731,725Z" fill="#6b9388" stroke="#6b9388"/><path d="M620,587L731,725L765,600Z" fill="#6fa8a0" stroke="#6fa8a0"/><path d="M765,600L731,725L908,784Z" fill="#51867f" stroke="#51867f"/><path d="M765,600L908,784L963,618Z" fill="#418a83" stroke="#418a83"/><path d="M963,618L908,784L1087,736Z" fill="#286c64" stroke="#286c64"/><path d="M963,618L1087,736L1135,556Z" fill="#247d74" stroke="#247d74"/><path d="M1135,556L1087,736L1268,583Z" fill="#157168" stroke="#157168"/><path d="M1268,583L1087,736L1271,795Z" fill="#004b42" stroke="#004b42"/><path d="M1268,583L1271,795L1420,768Z" fill="#00342c" stroke="#00342c"/><path d="M1268,583L1420,768L1464,593Z" fill="#07443b" stroke="#07443b"/><path d="M1464,593L1420,768L1584,633Z" fill="#022c24" stroke="#022c24"/><path d="M1584,633L1420,768L1651,800Z" fill="#000e0a" stroke="#000e0a"/><path d="M-56,738L-85,914L97,780Z" fill="#442602" stroke="#442602"/><path d="M97,780L-85,914L72,968Z" fill="#4b2e0b" stroke="#4b2e0b"/><path d="M97,780L72,968L232,897Z" fill="#5b441f" stroke="#5b441f"/><path d="M97,780L232,897L220,743Z" fill="#634e28" stroke="#634e28"/><path d="M220,743L232,897L437,773Z" fill="#70603e" stroke="#70603e"/><path d="M437,773L232,897L432,903Z" fill="#74684c" stroke="#74684c"/><path d="M437,773L432,903L593,757Z" fill="#7b7462" stroke="#7b7462"/><path d="M593,757L432,903L582,938Z" fill="#767466" stroke="#767466"/><path d="M593,757L582,938L731,725Z" fill="#6c756d" stroke="#6c756d"/><path d="M731,725L582,938L786,969Z" fill="#667571" stroke="#667571"/><path d="M731,725L786,969L908,784Z" fill="#506b68" stroke="#506b68"/><path d="M908,784L786,969L969,916Z" fill="#3e625f" stroke="#3e625f"/><path d="M908,784L969,916L1087,736Z" fill="#285652" stroke="#285652"/><path d="M1087,736L969,916L1118,909Z" fill="#1b4a46" stroke="#1b4a46"/><path d="M1087,736L1118,909L1271,795Z" fill="#083a36" stroke="#083a36"/><path d="M1271,795L1118,909L1309,897Z" fill="#002e2a" stroke="#002e2a"/><path d="M1271,795L1309,897L1420,768Z" fill="#001e1a" stroke="#001e1a"/><path d="M1420,768L1309,897L1420,963Z" fill="#001612" stroke="#001612"/><path d="M1420,768L1420,963L1585,953Z" fill="#000703" stroke="#000703"/><path d="M1420,768L1585,953L1651,800Z" fill="#000000" stroke="#000000"/><path d="M72,968L786,969L582,938Z" fill="#7b7462" stroke="#7b7462"/><path d="M72,968L582,938L432,903Z" fill="#74674b" stroke="#74674b"/><path d="M72,968L432,903L232,897Z" fill="#6d5a34" stroke="#6d5a34"/><path d="M786,969L1420,963L1118,909Z" fill="#12423e" stroke="#12423e"/><path d="M786,969L1118,909L969,916Z" fill="#2e5b57" stroke="#2e5b57"/><path d="M1118,909L1420,963L1309,897Z" fill="#002622" stroke="#002622"/></g></svg>